<svg width="160" height="160" viewBox="0 0 160 160" fill="none" xmlns="http://www.w3.org/2000/svg">
<path d="M152.656 104.926C152.593 97.7389 150.393 90.3764 146.093 84.5632C144.893 82.9383 143.643 81.3445 142.206 79.9258C140.8 78.5195 139.237 77.3008 137.643 76.1133C137.443 75.9758 137.237 75.8133 137.031 75.6758V32.8438V32.5626C136.906 29.0501 135.468 25.4501 132.812 23.0626C130.237 20.7626 127.075 19.4376 123.612 19.4062H21.0744C17.337 19.4062 13.5119 20.8125 10.9994 23.6437C8.56196 26.4063 7.34308 29.7 7.34308 33.3749V111.312C7.35558 116.137 9.89316 120.863 14.1868 123.219C16.5117 124.5 19.0493 124.956 21.6556 124.956H87.75C87.875 125.131 88 125.3 88.125 125.469C89.2625 127.031 90.4875 128.575 91.8437 129.969C93.2687 131.425 94.8437 132.669 96.4687 133.894C99.3312 136.05 102.606 137.631 105.981 138.781C112.669 141.081 120.294 141.169 127.056 139.187C139.869 135.437 150.213 124.187 152.132 110.863C152.394 109 152.619 107.163 152.644 105.3V105.113V105.081C152.657 105.031 152.657 104.969 152.657 104.925L152.656 104.926ZM90.2687 81.9392C90.2499 81.9517 90.2687 81.9392 90.2687 81.9392C89.6562 82.6767 89.0937 83.408 88.5186 84.1392C88.3811 84.3142 88.2561 84.4955 88.1311 84.6705C88.1186 84.683 88.1186 84.7017 88.0999 84.7017C86.4248 87.0768 85.0373 89.6518 83.9874 92.3581C83.9874 92.3706 83.9749 92.3893 83.9749 92.4081C83.3999 93.9393 82.9249 95.5018 82.5686 97.0956C82.3936 97.8643 82.2561 98.6268 82.1624 99.4081C82.0061 100.533 81.8624 101.646 81.7749 102.771C81.6624 104.396 81.6811 106.033 81.7874 107.658C81.8811 108.846 82.0499 110.021 82.2249 111.189C82.2874 111.614 82.3624 112.033 82.4624 112.452H29.0944C26.3443 112.452 23.5944 112.483 20.8445 112.452H20.6882C20.9695 112.527 21.2632 112.577 21.5632 112.627C21.2632 112.596 20.9695 112.552 20.6757 112.514C20.8632 112.608 21.0507 112.702 21.2382 112.777C21.0007 112.683 20.7882 112.589 20.5507 112.496C20.5194 112.496 20.4757 112.483 20.4382 112.483C20.5757 112.608 20.7382 112.746 20.8882 112.858C20.7319 112.733 20.5632 112.608 20.3882 112.471C20.3382 112.471 20.3132 112.458 20.2632 112.458C20.3132 112.533 20.3757 112.614 20.4382 112.696C20.3757 112.621 20.3132 112.539 20.2507 112.458C20.2007 112.458 20.1382 112.446 20.0944 112.446C20.1069 112.496 20.1257 112.539 20.1444 112.583C20.1319 112.533 20.0944 112.489 20.0819 112.446C20.0194 112.446 19.9569 112.433 19.8944 112.414C19.8819 112.352 19.8819 112.289 19.8632 112.227C19.8132 112.214 19.7694 112.177 19.7069 112.164C19.7569 112.177 19.8007 112.196 19.8632 112.214C19.8632 112.164 19.8507 112.121 19.8507 112.058C19.7757 111.996 19.6944 111.933 19.6132 111.871C19.6882 111.933 19.7694 111.983 19.8507 112.027C19.8507 111.996 19.8507 111.952 19.8382 111.914C19.7132 111.739 19.5757 111.571 19.4507 111.402C19.5757 111.558 19.7007 111.714 19.8382 111.871C19.8382 111.839 19.8382 111.808 19.8257 111.777C19.7507 111.589 19.6694 111.402 19.5882 111.214C19.6507 111.371 19.7257 111.527 19.8069 111.683C19.7757 111.446 19.7444 111.196 19.7132 110.964C19.7444 111.183 19.7882 111.414 19.8507 111.639C19.8194 110.952 19.8507 110.252 19.8507 109.577L19.8444 42.3272C19.8444 39.2022 19.8132 36.0898 19.8444 32.9646V32.7896C19.7694 33.0709 19.7194 33.3646 19.6694 33.6646C19.7007 33.3646 19.7444 33.0709 19.7819 32.7771C19.6882 32.9646 19.5944 33.1521 19.5194 33.3396C19.6132 33.1021 19.7069 32.8896 19.8007 32.6521C19.8007 32.6209 19.8132 32.5771 19.8132 32.5396C19.6882 32.6771 19.5632 32.8396 19.4382 32.9896C19.5632 32.8334 19.6882 32.6646 19.8257 32.4896C19.8257 32.4396 19.8382 32.4146 19.8382 32.3646C19.7632 32.4146 19.6819 32.4771 19.6007 32.5396C19.6757 32.4771 19.7569 32.4146 19.8382 32.3521C19.8382 32.3021 19.8507 32.2396 19.8507 32.1959C19.8007 32.2084 19.7569 32.2271 19.7132 32.2459C19.7632 32.2334 19.8069 32.1959 19.8507 32.1834C19.8632 32.1209 19.8632 32.0584 19.8819 31.9959C19.9444 31.9834 20.0069 31.9834 20.0694 31.9646C20.0819 31.9146 20.1194 31.8709 20.1319 31.8084C20.1194 31.8584 20.1007 31.9021 20.0819 31.9646C20.1319 31.9646 20.1757 31.9521 20.2382 31.9521C20.3007 31.8771 20.3632 31.7959 20.4257 31.7146C20.3632 31.7896 20.3132 31.8709 20.2694 31.9521C20.3007 31.9521 20.3444 31.9521 20.3819 31.9396C20.557 31.8146 20.7257 31.6771 20.8944 31.5521C20.7382 31.6771 20.5819 31.8021 20.4257 31.9396C20.4569 31.9396 20.4882 31.9396 20.5194 31.9271C20.7069 31.8521 20.8944 31.7709 21.0819 31.6896C20.9257 31.7521 20.7694 31.8271 20.6132 31.9084C20.8507 31.8771 21.1007 31.8459 21.3319 31.8146C21.1132 31.8459 20.9069 31.8896 20.6944 31.9396C21.5819 31.9084 22.5069 31.9521 23.3944 31.9521H111.194C115.288 31.9521 119.382 31.9396 123.476 31.9521H123.676C123.394 31.8771 123.101 31.8271 122.801 31.7771C123.101 31.8084 123.394 31.8521 123.688 31.8896C123.501 31.7959 123.313 31.7021 123.126 31.6271C123.363 31.7209 123.576 31.8146 123.813 31.9084C123.844 31.9084 123.888 31.9209 123.926 31.9209C123.788 31.7959 123.626 31.6709 123.476 31.5459C123.632 31.6709 123.801 31.7959 123.976 31.9334C124.026 31.9334 124.051 31.9459 124.101 31.9459C124.051 31.8709 123.988 31.7896 123.926 31.7084C123.988 31.7834 124.051 31.8646 124.113 31.9459C124.163 31.9459 124.226 31.9584 124.269 31.9584C124.257 31.9084 124.238 31.8646 124.219 31.8209C124.232 31.8709 124.269 31.9146 124.282 31.9584C124.344 31.9709 124.407 31.9709 124.469 31.9896C124.482 32.0521 124.501 32.1146 124.501 32.1771C124.532 32.1896 124.551 32.1896 124.576 32.2084C124.588 32.2209 124.626 32.2209 124.638 32.2396C124.626 32.2396 124.588 32.2271 124.576 32.2271C124.576 32.2771 124.563 32.3396 124.563 32.3834C124.626 32.4334 124.688 32.4771 124.751 32.5209C124.688 32.4709 124.626 32.4271 124.563 32.3959V32.5084C124.688 32.6646 124.813 32.8209 124.938 32.9771C124.813 32.8209 124.701 32.6771 124.563 32.5396V32.6146C124.638 32.8021 124.719 32.9709 124.782 33.1646C124.719 33.0084 124.644 32.8521 124.563 32.6959C124.594 32.9334 124.626 33.1834 124.657 33.4146C124.626 33.2271 124.594 33.0584 124.544 32.8646V70.3334C123.432 70.0959 122.307 69.9084 121.182 69.7709C121.151 69.7709 121.119 69.7584 121.088 69.7584C121.013 69.7459 120.932 69.7459 120.851 69.7272C120.676 69.7147 120.526 69.6959 120.351 69.6772H120.301C119.751 69.6272 119.188 69.5834 118.626 69.5647C118.513 69.5647 118.407 69.5647 118.301 69.5522C117.113 69.5209 115.926 69.5522 114.738 69.6459C111.351 69.9272 108.038 70.5959 104.876 71.7584C103.113 72.4334 101.407 73.1959 99.763 74.1021C99.6693 74.1521 99.563 74.2146 99.463 74.2771C99.388 74.3271 99.288 74.3708 99.213 74.4146C99.1505 74.4646 99.0755 74.4896 99.013 74.5396C98.463 74.8646 97.9193 75.2146 97.3881 75.5708C97.3756 75.5708 97.3756 75.5833 97.3568 75.5833C97.2818 75.6458 97.1818 75.6958 97.1068 75.7583C96.8568 75.9333 96.6068 76.1146 96.3693 76.2896C95.5568 76.9021 94.7443 77.5271 93.9631 78.1771C92.6568 79.3459 91.4067 80.5958 90.2693 81.9397L90.2687 81.9392ZM140 108.176C139.675 110.126 139.175 112.039 138.45 113.876C137.606 115.764 136.562 117.551 135.344 119.201C134.125 120.67 132.781 122.032 131.312 123.232C129.656 124.451 127.875 125.495 126 126.357C124.094 127.076 122.125 127.607 120.106 127.951C118.106 128.151 116.075 128.138 114.056 127.938C112.106 127.613 110.213 127.113 108.369 126.407C106.481 125.545 104.681 124.501 102.994 123.282C101.525 122.063 100.163 120.72 98.9438 119.251C98.1188 118.113 97.3688 116.926 96.6939 115.688C96.4127 115.157 96.1439 114.613 95.8814 114.063C95.9314 114.188 95.9752 114.326 96.0377 114.451C96.0252 114.401 95.9877 114.338 95.9752 114.295C96.0064 114.357 96.0252 114.42 96.0377 114.47C95.9002 114.126 95.7376 113.77 95.6002 113.42C95.6314 113.495 95.6626 113.557 95.6939 113.638C95.6626 113.563 95.6314 113.482 95.6002 113.401C95.6751 113.576 95.7564 113.757 95.8377 113.932C95.1377 112.07 94.6001 110.151 94.2752 108.182C94.2877 108.32 94.3064 108.445 94.3252 108.588C94.3252 108.638 94.3377 108.701 94.3377 108.745C94.2752 108.276 94.2127 107.807 94.1502 107.357C94.1627 107.47 94.1814 107.576 94.2002 107.682C94.1877 107.57 94.1689 107.463 94.1502 107.338C94.1814 107.588 94.2252 107.851 94.2752 108.107C94.2439 107.732 94.2127 107.357 94.1814 106.982V106.92C94.1814 106.782 94.1689 106.657 94.1689 106.513C94.1189 105.545 94.1189 104.576 94.1689 103.588C94.1689 103.463 94.1814 103.338 94.1814 103.232V103.12C94.1939 102.795 94.2314 102.463 94.2564 102.132C94.2064 102.37 94.1814 102.601 94.1439 102.832C94.1439 102.801 94.1439 102.77 94.1564 102.738C94.1564 102.77 94.1439 102.788 94.1439 102.813C94.2064 102.263 94.2814 101.701 94.3627 101.157C94.3627 101.207 94.3502 101.232 94.3502 101.282C94.3502 101.251 94.3627 101.207 94.3627 101.17C94.3502 101.263 94.3314 101.37 94.3314 101.47V101.482C94.3189 101.595 94.3002 101.701 94.3002 101.807C94.2877 101.882 94.2877 101.963 94.2689 102.045C94.5814 100.107 95.0939 98.2009 95.7814 96.3571C95.7064 96.5134 95.6439 96.6821 95.5627 96.8446C95.6127 96.7509 95.6377 96.6446 95.6877 96.5446C95.6377 96.6384 95.6127 96.7321 95.5627 96.8259C95.7002 96.4821 95.8626 96.1258 96.0002 95.7758C95.9689 95.8509 95.9377 95.9321 95.9064 96.0134C95.9377 95.9384 95.9689 95.8759 96.0002 95.7946C95.9502 95.9196 95.9064 96.0446 95.8439 96.1696C96.6564 94.3696 97.6439 92.6821 98.794 91.0759C98.669 91.2321 98.544 91.3883 98.4065 91.5634C98.544 91.3884 98.669 91.2196 98.8127 91.0509C98.6752 91.2259 98.5502 91.3759 98.4065 91.5509C98.7315 91.1259 99.0627 90.7071 99.394 90.2884C99.2565 90.4634 99.1315 90.6446 98.9877 90.8196C99.1252 90.6446 99.2502 90.4759 99.394 90.3071C99.269 90.4634 99.144 90.6321 99.019 90.8071C100.156 89.4321 101.407 88.1822 102.782 87.0446C102.625 87.1571 102.482 87.2633 102.332 87.3883C102.519 87.2508 102.688 87.107 102.882 86.9633C102.694 87.1008 102.507 87.2258 102.332 87.3695C102.757 87.0446 103.175 86.7133 103.594 86.382C103.394 86.5383 103.207 86.6945 103 86.8695C103.2 86.7133 103.388 86.5571 103.594 86.4008C103.438 86.5258 103.269 86.6508 103.107 86.7883C104.657 85.6758 106.294 84.7133 108.013 83.9133C107.9 83.9633 107.794 83.9883 107.688 84.0383C107.863 83.9633 108.044 83.882 108.219 83.8195C107.938 83.932 107.657 84.0383 107.357 84.1633C107.857 83.9632 108.357 83.7383 108.857 83.5383C108.657 83.6133 108.45 83.7133 108.244 83.8008C108.444 83.707 108.65 83.6257 108.857 83.5508C108.719 83.6133 108.557 83.6758 108.419 83.7383C110.169 83.082 111.969 82.6008 113.807 82.2695L113.557 82.3008C113.682 82.2883 113.807 82.2695 113.932 82.2508C113.982 82.2508 114.007 82.2383 114.057 82.2383C114.088 82.2383 114.132 82.2383 114.169 82.2258C114.407 82.1945 114.619 82.1633 114.857 82.132C114.669 82.1633 114.482 82.182 114.294 82.207C116.169 82.032 118.057 82.032 119.931 82.207C119.731 82.1758 119.544 82.1445 119.356 82.1133C119.556 82.1258 119.744 82.1633 119.95 82.1883C119.75 82.157 119.563 82.1258 119.356 82.0945C119.906 82.157 120.469 82.232 121.013 82.3133C120.813 82.282 120.588 82.2633 120.388 82.2383C120.588 82.2695 120.813 82.3008 121.013 82.332C120.813 82.3008 120.625 82.282 120.419 82.2695C122.219 82.582 123.982 83.0508 125.688 83.6945C125.594 83.6445 125.5 83.6195 125.407 83.5695C125.563 83.632 125.732 83.707 125.894 83.7695C125.907 83.7695 125.944 83.782 125.957 83.8008C125.769 83.7258 125.6 83.6445 125.407 83.5633C125.75 83.7008 126.082 83.8445 126.419 83.9883C126.263 83.9258 126.107 83.8633 125.95 83.8008C125.963 83.8132 126 83.8132 126.013 83.832C126.15 83.8945 126.275 83.9445 126.419 84.007C126.344 83.9758 126.244 83.9445 126.169 83.9133C126.094 83.882 125.994 83.8383 125.907 83.8008C127.782 84.6633 129.563 85.6883 131.232 86.907C132.7 88.1258 134.063 89.482 135.263 90.9569C136.482 92.632 137.513 94.3944 138.369 96.2694C139.069 98.1444 139.607 100.069 139.932 102.032C140.025 103.044 140.088 104.063 140.088 105.082C140.157 106.126 140.094 107.138 140 108.176L140 108.176ZM126.987 98.826H123.412V95.2509C123.412 91.9884 120.537 88.8447 117.162 89.001C113.775 89.1572 110.913 91.7511 110.913 95.2509V98.826H107.337C104.075 98.826 100.931 101.701 101.088 105.076C101.244 108.451 103.838 111.326 107.337 111.326H110.913V114.901C110.913 118.163 113.788 121.307 117.162 121.151C120.55 120.995 123.412 118.401 123.412 114.901V111.326H126.987C130.25 111.326 133.394 108.451 133.237 105.076C133.075 101.688 130.487 98.826 126.987 98.826Z" fill="#FFCB46"/>
<path d="M118.219 46.4103C117.782 48.004 116.707 49.2539 115.344 50.1477C113.688 51.2227 112.032 52.304 110.375 53.3851C103.188 58.0602 96.0002 62.7477 88.8121 67.4163C84.3121 70.3538 79.7996 73.2789 75.2996 76.2163C73.537 77.3538 70.737 77.4038 68.9871 76.2163C67.3308 75.0913 65.6871 73.9789 64.037 72.8727C56.8495 68.029 49.662 63.1976 42.4738 58.3602C37.9614 55.329 33.4614 52.2851 28.9426 49.2477C26.0551 47.2976 25.0364 43.8602 26.7239 40.6976C27.4427 39.3414 29.0052 38.2288 30.4614 37.8226C31.9301 37.4163 33.9738 37.5726 35.2738 38.4476C36.9302 39.5726 38.5738 40.685 40.2239 41.7912C47.4114 46.6349 54.599 51.4663 61.7871 56.3037C65.2746 58.6474 68.7372 60.9913 72.2121 63.3162C72.8058 62.9287 73.3871 62.5475 73.9746 62.1787C81.1622 57.5037 88.3497 52.8161 95.5378 48.1475C100.038 45.2101 104.55 42.2849 109.05 39.3475C110.457 38.4225 112.269 38.36 113.863 38.7225C115.457 39.085 116.738 40.2725 117.6 41.5976C118.438 42.9288 118.625 44.91 118.219 46.41L118.219 46.4103Z" fill="#FFCB46"/>
</svg>
